<svg width="160" height="80" viewBox="0 0 160 80" fill="none" xmlns="http://www.w3.org/2000/svg">
<g opacity="0.98">
<path d="M117.553 64.3904H119.747C120.493 64.3904 121.097 64.9706 121.097 65.6863V80H117.553V64.3904Z" fill="white"/>
<path d="M122.531 64.3904H124.725C125.471 64.3904 126.076 64.9706 126.076 65.6863V80H122.531V64.3904Z" fill="white"/>
<path fill-rule="evenodd" clip-rule="evenodd" d="M42.4763 68.085C42.8342 68.4146 43.2741 68.5794 43.796 68.5794C44.3179 68.5794 44.7578 68.4146 45.1157 68.085C45.4736 67.7553 45.6525 67.3397 45.6525 66.8381C45.6525 66.3508 45.4736 65.9423 45.1157 65.6126C44.7578 65.2687 44.3179 65.0967 43.796 65.0967C43.2741 65.0967 42.8342 65.2687 42.4763 65.6126C42.1184 65.9423 41.9395 66.3508 41.9395 66.8381C41.9395 67.3397 42.1184 67.7553 42.4763 68.085Z" fill="white"/>
<path d="M45.2328 60.7129C45.2328 60.7129 23.2498 52.7349 17.9754 59.741C15.1537 63.4892 17.8058 71.5665 17.8058 71.5665C17.8058 71.5665 18.1321 66.6829 20.8818 64.2268C28.1813 57.7068 40.7982 63.3218 52.8699 65.8966C60.0851 67.4354 64.0369 68.1854 71.2243 69.3388C78.5341 70.5118 89.958 71.8197 89.958 71.8197C89.958 71.8197 75.1437 68.9142 65.7813 66.5445C57.6898 64.4965 45.2328 60.7129 45.2328 60.7129Z" fill="white"/>
<path fill-rule="evenodd" clip-rule="evenodd" d="M36.258 64.3904C36.2114 64.3904 36.1736 64.4266 36.1736 64.4714V79.9156C36.1736 79.9603 36.2114 79.9966 36.258 79.9966H39.6061C39.6527 79.9966 39.6905 79.9603 39.6905 79.9156V65.6863C39.6905 64.9706 39.086 64.3904 38.3403 64.3904H36.258ZM2.23271 79.8403C3.10222 79.9956 4.01594 79.9966 4.97387 79.9966C9.2035 79.9966 11.3183 78.5983 11.3183 75.6486C11.3183 73.9973 10.4562 72.8682 8.7319 72.2613C9.4393 71.9085 9.96984 71.4427 10.3235 70.864C10.692 70.2713 10.8762 69.6362 10.8762 68.9587C10.8762 67.5897 10.4046 66.5311 9.4614 65.7831C8.51821 65.021 7.08131 64.6399 5.15072 64.6399C4.26647 64.6399 3.41171 64.7387 2.58641 64.9363C1.77913 65.1158 1.04941 65.3763 0.397237 65.7178C0.370309 65.7319 0.353697 65.7591 0.353697 65.7885V68.1329C0.353697 68.197 0.427679 68.2358 0.48448 68.2021C1.10594 67.8335 1.74026 67.5635 2.38746 67.3921C3.09485 67.1945 3.8612 67.0957 4.68649 67.0957C5.55599 67.0957 6.23391 67.2651 6.72025 67.6038C7.20658 67.9425 7.44975 68.4365 7.44975 69.0857C7.44975 69.7349 7.17711 70.2289 6.63182 70.5677C6.10128 70.8923 5.35704 71.0546 4.39911 71.0546H2.53816C2.49156 71.0546 2.45377 71.0908 2.45377 71.1356V73.4294C2.45377 73.4741 2.49156 73.5104 2.53816 73.5104H4.48753C5.65179 73.5104 6.51393 73.6656 7.07395 73.9761C7.63397 74.2725 7.91398 74.7806 7.91398 75.5004C7.91398 76.1778 7.6266 76.7 7.05184 77.067C6.49182 77.434 5.63705 77.6174 4.48753 77.6174C2.96885 77.6174 1.51284 77.324 0.11951 76.7371C0.0633636 76.7134 0 76.7526 0 76.8115V79.1339C0 79.1646 0.0180339 79.1927 0.0467905 79.2062C0.656366 79.4914 1.38501 79.7027 2.23271 79.8403ZM53.7069 79.9966C51.791 79.9966 50.2657 79.6075 49.1309 78.676C47.9962 77.7303 47.4288 76.4037 47.4288 74.6959C47.4288 72.9882 47.9962 71.6615 49.1309 70.7158C50.2804 69.7561 51.8131 69.2763 53.729 69.2763C55.4459 69.2763 56.818 69.5789 57.8454 70.1842C57.8701 70.1988 57.8849 70.2247 57.8849 70.2526V72.5693C57.8849 72.6352 57.8069 72.674 57.7496 72.6376C57.3085 72.358 56.801 72.1479 56.227 72.0073C55.608 71.852 54.9522 71.7744 54.2595 71.7744C53.2279 71.7744 52.4026 72.0143 51.7837 72.4942C51.1647 72.974 50.8552 73.7079 50.8552 74.6959C50.8552 75.6839 51.1573 76.4178 51.7616 76.8976C52.3805 77.3634 53.2058 77.5963 54.2374 77.5963C55.6103 77.5963 56.8268 77.2904 57.887 76.6786C57.9441 76.6457 58.0176 76.6846 58.0176 76.7485V79.0543C58.0176 79.0823 58.0026 79.1084 57.9776 79.1229C56.892 79.7546 55.4684 79.9966 53.7069 79.9966ZM59.89 68.5516C59.8372 68.5401 59.7869 68.5787 59.7869 68.6307V79.9156C59.7869 79.9603 59.8247 79.9966 59.8713 79.9966H63.2194C63.266 79.9966 63.3038 79.9603 63.3038 79.9156V75.1828L67.8595 79.9702C67.8755 79.987 67.8981 79.9966 67.9218 79.9966H71.5592C71.6329 79.9966 71.6712 79.9122 71.6209 79.8604L66.4614 74.5477L69.9845 70.536C70.0276 70.487 69.9975 70.4115 69.9312 70.4031C69.6251 70.3643 68.9257 70.273 68.4388 70.1895C67.8825 70.094 67.0633 69.9161 66.854 69.8702C66.8229 69.8633 66.791 69.8739 66.7706 69.8974L63.3038 73.8914V69.2853C63.3038 69.2461 63.2749 69.2126 63.2347 69.2056C62.9844 69.1622 62.1093 69.0093 61.519 68.8936C60.9687 68.7856 60.1715 68.613 59.89 68.5516ZM96.0993 79.9966C95.1561 79.9966 94.2203 79.9885 93.2918 79.8192C92.3877 79.6542 91.6443 79.4358 91.0617 79.1638C91.0329 79.1504 91.0149 79.1223 91.0149 79.0916V76.4347C91.0149 76.3748 91.0803 76.3355 91.1367 76.3612C91.8802 76.7001 92.6501 76.9566 93.4465 77.1305C94.2866 77.314 95.0898 77.4057 95.8561 77.4057C96.7109 77.4057 97.3593 77.2646 97.8014 76.9823C98.2436 76.7 98.4646 76.3049 98.4646 75.7968C98.4646 75.4298 98.3541 75.1193 98.133 74.8653C97.912 74.6112 97.5877 74.3854 97.1604 74.1878C96.7477 73.9761 96.1066 73.7009 95.2371 73.3622C94.4517 73.0552 93.784 72.7294 93.234 72.3848C95.8667 72.7067 97.6704 72.878 97.6704 72.878C97.6704 72.878 95.5777 72.4676 92.4682 71.8294C92.333 71.7141 92.2097 71.597 92.0981 71.478C91.4496 70.7723 91.1254 69.9043 91.1254 68.874C91.1254 68.0413 91.3612 67.3074 91.8328 66.6723C92.3044 66.0231 92.9676 65.522 93.8223 65.1692C94.6771 64.8163 95.6645 64.6399 96.7846 64.6399C97.6983 64.6399 98.5088 64.7105 99.2162 64.8516C99.9064 64.9893 100.583 65.2009 101.245 65.4864C101.275 65.4994 101.294 65.5283 101.294 65.56V68.1291C101.294 68.1893 101.228 68.2285 101.172 68.2024C99.9157 67.6198 98.6596 67.3286 97.4035 67.3286C96.5782 67.3286 95.9298 67.4697 95.4582 67.752C94.9866 68.0201 94.7508 68.4083 94.7508 68.9164C94.7508 69.2833 94.8613 69.5868 95.0824 69.8267C95.3035 70.0666 95.6129 70.2783 96.0108 70.4618C96.4088 70.6453 97.0572 70.9134 97.9562 71.2663C99.0025 71.6897 99.8205 72.099 100.41 72.4942C100.999 72.8752 101.434 73.3339 101.714 73.8703C101.994 74.3925 102.134 75.0417 102.134 75.8179C102.134 77.1587 101.626 78.2031 100.609 78.9512C99.6068 79.6992 98.1036 79.9966 96.0993 79.9966ZM105.325 78.676C106.49 79.6075 108.089 79.9966 110.122 79.9966C110.252 79.9966 110.379 79.9975 110.504 79.9984H110.504H110.505C111.159 80.0029 111.767 80.0072 112.554 79.8827C113.321 79.7613 113.983 79.5975 114.492 79.3953C114.524 79.3829 114.544 79.3536 114.544 79.3211V77.2488C114.544 77.1919 114.484 77.1526 114.428 77.1723C113.923 77.3501 113.335 77.4914 112.665 77.5963C111.943 77.7092 111.243 77.7656 110.565 77.7656C108.266 77.7656 106.998 77.1164 106.762 75.8179H115.432C115.479 75.8179 115.516 75.7817 115.516 75.7369V74.5265C115.516 73.5245 115.288 72.6283 114.831 71.8379C114.374 71.0334 113.704 70.4053 112.819 69.9537C111.935 69.5021 110.859 69.2763 109.592 69.2763C107.661 69.2763 106.173 69.7632 105.126 70.737C104.095 71.7109 103.579 73.0376 103.579 74.7171C103.579 76.4107 104.161 77.7303 105.325 78.676ZM111.559 72.1766C112.046 72.5436 112.311 73.0658 112.355 73.7432H106.762C106.807 73.0799 107.072 72.5577 107.558 72.1766C108.045 71.7955 108.708 71.605 109.548 71.605C110.402 71.605 111.073 71.7955 111.559 72.1766ZM134.776 79.9966C132.742 79.9966 131.143 79.6075 129.979 78.676C128.815 77.7303 128.233 76.4107 128.233 74.7171C128.233 73.0376 128.748 71.7109 129.78 70.737C130.826 69.7632 132.315 69.2763 134.245 69.2763C135.513 69.2763 136.589 69.5021 137.473 69.9537C138.357 70.4053 139.028 71.0334 139.485 71.8379C139.941 72.6283 140.17 73.5245 140.17 74.5265V75.7369C140.17 75.7817 140.132 75.8179 140.085 75.8179H131.416C131.652 77.1164 132.919 77.7656 135.218 77.7656C135.896 77.7656 136.596 77.7092 137.318 77.5963C137.989 77.4914 138.577 77.3501 139.082 77.1723C139.138 77.1526 139.197 77.1919 139.197 77.2488V79.3211C139.197 79.3536 139.177 79.3829 139.146 79.3953C138.638 79.5974 137.992 79.7598 137.208 79.8827C136.466 79.9988 135.725 79.9978 134.984 79.9968C134.914 79.9967 134.845 79.9966 134.776 79.9966ZM137.009 73.7432C136.964 73.0658 136.699 72.5436 136.213 72.1766C135.726 71.7955 135.056 71.605 134.201 71.605C133.361 71.605 132.698 71.7955 132.212 72.1766C131.725 72.5577 131.46 73.0799 131.416 73.7432H137.009ZM142.1 69.8348C142.054 69.8348 142.016 69.871 142.016 69.9158V79.9156C142.016 79.9603 142.054 79.9966 142.1 79.9966H145.27C145.316 79.9966 145.354 79.9603 145.354 79.9156V74.0054C145.649 73.3985 146.179 72.9468 146.946 72.6504C147.705 72.3623 148.576 72.2142 149.558 72.2062C149.605 72.2058 149.643 72.1696 149.643 72.1249V69.8522C149.643 69.8075 149.605 69.7712 149.558 69.7716C148.62 69.7791 147.778 69.9131 147.034 70.1735C146.268 70.4275 145.671 70.8016 145.244 71.2955V69.9158C145.244 69.871 145.206 69.8348 145.159 69.8348H142.1ZM155.092 79.9966C154.297 79.9966 153.442 79.9885 152.528 79.8192C151.653 79.668 150.959 79.4499 150.447 79.165C150.421 79.1507 150.406 79.1243 150.406 79.0958V76.7865C150.406 76.7236 150.478 76.6845 150.535 76.7155C151.098 77.0215 151.762 77.2727 152.528 77.4692C153.353 77.6809 154.12 77.7868 154.827 77.7868C155.431 77.7868 155.874 77.7374 156.154 77.6386C156.434 77.5398 156.574 77.3563 156.574 77.0882C156.574 76.8765 156.493 76.7071 156.33 76.5801C156.168 76.4389 155.918 76.319 155.579 76.2202C155.255 76.1073 154.709 75.945 153.943 75.7333C153.044 75.4792 152.337 75.2252 151.821 74.9711C151.32 74.703 150.937 74.3713 150.671 73.9761C150.421 73.5809 150.295 73.0728 150.295 72.4518C150.295 71.3933 150.73 70.6029 151.6 70.0807C152.484 69.5444 153.678 69.2763 155.181 69.2763C155.918 69.2763 156.677 69.3539 157.458 69.5091C158.228 69.6457 158.826 69.8285 159.251 70.0576C159.277 70.0717 159.293 70.0984 159.293 70.1272V72.3656C159.293 72.43 159.218 72.4691 159.16 72.4363C158.752 72.2039 158.236 72.0115 157.613 71.8591C156.935 71.6897 156.271 71.605 155.623 71.605C155.019 71.605 154.547 71.6615 154.208 71.7744C153.884 71.8873 153.722 72.099 153.722 72.4095C153.722 72.6777 153.877 72.8823 154.186 73.0234C154.51 73.1646 155.107 73.341 155.977 73.5527L156.419 73.6585C157.347 73.8985 158.069 74.1666 158.585 74.463C159.101 74.7453 159.462 75.0911 159.668 75.5004C159.889 75.8956 160 76.3966 160 77.0035C160 77.935 159.58 78.683 158.74 79.2476C157.9 79.798 156.684 79.9966 155.092 79.9966ZM28.8431 79.9966C27.1925 79.9966 25.7335 79.7627 24.4661 79.1417C23.1987 78.5066 22.2186 77.6104 21.526 76.4531C21.526 76.4531 21.3008 75.9501 20.9133 75.1257C20.6291 74.2901 20.487 73.3706 20.487 72.3672C20.487 70.8005 20.8333 69.4386 21.526 68.2812C22.2186 67.1098 23.1987 66.2136 24.4661 65.5926C25.7335 64.9575 27.1925 64.6399 28.8431 64.6399L28.8962 64.64C28.9291 64.6401 28.9619 64.6404 28.9946 64.6407C31.0462 64.6621 32.7665 65.1196 34.1557 66.0132C34.1789 66.0281 34.1928 66.0532 34.1928 66.0801V68.912C34.1928 68.9808 34.1087 69.0187 34.0524 68.9761C33.4375 68.5109 32.7401 68.1734 31.96 67.9637C31.1347 67.7238 30.1916 67.6038 29.1305 67.6038C27.5241 67.6038 26.2493 68.0343 25.3061 68.8952C24.3777 69.742 23.9134 70.8993 23.9134 72.3672C23.9134 73.8491 24.385 75.0205 25.3282 75.8815C26.2714 76.7283 27.5388 77.1517 29.1305 77.1517C30.221 77.1517 31.1863 77.0317 32.0264 76.7918C32.8131 76.5538 33.5482 76.1859 34.2316 75.688C34.2878 75.647 34.3696 75.685 34.3696 75.7528V78.5927C34.3696 78.6184 34.3569 78.6426 34.3352 78.6577C32.9827 79.6001 31.152 79.9966 28.8431 79.9966ZM45.635 79.9964C45.6816 79.9964 45.7194 79.9602 45.7194 79.9155V71.1939C45.7194 70.4782 45.1149 69.898 44.3692 69.898H42.2869C42.2403 69.898 42.2025 69.9342 42.2025 69.979V79.9155C42.2025 79.9602 42.2403 79.9964 42.2869 79.9964H45.635ZM74.3797 79.8192C75.2934 79.9885 76.1482 79.9966 76.944 79.9966C78.5356 79.9966 79.7515 79.798 80.5915 79.2476C81.4315 78.683 81.8516 77.935 81.8516 77.0035C81.8516 76.3966 81.741 75.8956 81.52 75.5004C81.3136 75.0911 80.9526 74.7453 80.4368 74.463C79.921 74.1666 79.1988 73.8985 78.2704 73.6585L77.8283 73.5527C76.9587 73.341 76.3619 73.1646 76.0377 73.0234C75.7282 72.8823 75.5734 72.6777 75.5734 72.4095C75.5734 72.099 75.7355 71.8873 76.0598 71.7744C76.3987 71.6615 76.9204 71.6567 77.4745 71.6667C78.2612 71.681 78.7076 71.7638 79.4641 71.9713C80.077 72.1395 80.6012 72.3193 81.0115 72.549C81.0694 72.5815 81.1442 72.5423 81.1442 72.4779V71.9834L76.8776 71.4449L72.6281 70.82C72.3074 71.265 72.147 71.809 72.147 72.4518C72.147 73.0728 72.2723 73.5809 72.5228 73.9761C72.7881 74.3713 73.1712 74.703 73.6723 74.9711C74.1881 75.2252 74.8955 75.4792 75.7945 75.7333C76.5608 75.945 77.1061 76.1073 77.4303 76.2202C77.7693 76.319 78.0198 76.4389 78.1819 76.5801C78.3441 76.7071 78.4251 76.8765 78.4251 77.0882C78.4251 77.3563 78.2851 77.5398 78.0051 77.6386C77.7251 77.7374 77.283 77.7868 76.6787 77.7868C75.9713 77.7868 75.205 77.6809 74.3797 77.4692C73.6136 77.2727 72.9491 77.0215 72.3861 76.7155C72.3291 76.6845 72.2575 76.7236 72.2575 76.7865V79.0958C72.2575 79.1243 72.273 79.1507 72.2987 79.165C72.8107 79.4499 73.5044 79.668 74.3797 79.8192Z" fill="white"/>
<path d="M18.9453 55.9345C18.9453 55.9345 19.9876 43.3242 21.7712 35.9401C23.5169 28.7125 24.5991 24.5668 28.0089 17.9193C31.865 10.4016 40.8479 0.383758 40.8479 0.383758C40.8479 0.383758 37.2147 20.4484 39.4092 32.2223C41.6362 44.17 50.844 59.9437 50.844 59.9437C50.844 59.9437 48.7932 59.3292 45.9073 58.4453C44.2196 57.8783 42.117 57.2061 40.2111 56.7039C38.0592 56.137 35.4854 55.5295 33.1225 55.1245C31.1869 54.8168 29.4113 54.6378 28.1858 54.5576C22.1063 54.1597 18.9453 55.9345 18.9453 55.9345Z" fill="white"/>
<path d="M66.2454 64.2359C70.768 65.3764 77.891 66.9087 77.891 66.9087C77.891 66.9087 61.8137 52.0598 55.4024 40.1155C53.637 36.8266 51.1546 33.128 49.536 28.2341C47.1345 20.9729 46.498 8.71457 46.498 8.71457C46.498 8.71457 41.4968 18.5394 41.412 25.0446C41.3095 32.9156 42.9632 37.1658 45.9077 44.5139C48.6502 51.3579 54.2201 60.9151 54.2201 60.9151C54.2201 60.9151 61.5191 63.044 66.2454 64.2359Z" fill="white"/>
</g>
</svg>
