<svg width="20" height="20" viewBox="0 0 20 20" fill="none" xmlns="http://www.w3.org/2000/svg">
<g opacity="0.9">
<path d="M6.29232 0.666748H3.33335C1.86059 0.666748 0.666687 1.86066 0.666687 3.33341V6.00008C0.666687 13.3639 6.63622 19.3334 14 19.3334H16.6667C18.1394 19.3334 19.3334 18.1395 19.3334 16.6667V14.8241C19.3334 14.3191 19.048 13.8574 18.5963 13.6316L15.3751 12.0209C14.6493 11.6581 13.7705 12.0221 13.5139 12.7919L13.1168 13.9829C12.8597 14.7544 12.0683 15.2137 11.2708 15.0542C8.07907 14.4159 5.58421 11.921 4.94586 8.7293C4.78637 7.93185 5.24565 7.14043 6.01717 6.88325L7.49534 6.39053C8.1563 6.17021 8.5362 5.47815 8.36723 4.80224L7.58584 1.6767C7.43745 1.08314 6.90414 0.666748 6.29232 0.666748Z" stroke="white"/>
</g>
</svg>
